<mxfile host="Electron" modified="2024-04-23T13:49:16.666Z" agent="Mozilla/5.0 (Windows NT 10.0; Win64; x64) AppleWebKit/537.36 (KHTML, like Gecko) draw.io/24.2.5 Chrome/120.0.6099.109 Electron/28.1.0 Safari/537.36" etag="aPaZfjCKnViUyfovOD7K" version="24.2.5" type="device">
  <diagram name="Page-1" id="ACmRtfwCKE0hr8Hz7ivx">
    <mxGraphModel dx="1219" dy="875" grid="1" gridSize="10" guides="1" tooltips="1" connect="1" arrows="1" fold="1" page="1" pageScale="1" pageWidth="1100" pageHeight="850" math="0" shadow="0">
      <root>
        <mxCell id="0" />
        <mxCell id="1" parent="0" />
        <mxCell id="PDYD6PQcIB9Lw4-8tbn1-1" value="" style="rounded=0;whiteSpace=wrap;html=1;fillColor=none;" parent="1" vertex="1">
          <mxGeometry x="480" y="80" width="530" height="510" as="geometry" />
        </mxCell>
        <mxCell id="M3O_SQnftP9who5srQIG-1" value="body" style="rounded=0;whiteSpace=wrap;html=1;strokeColor=#000000;" parent="1" vertex="1">
          <mxGeometry x="525" y="191" width="455" height="290" as="geometry" />
        </mxCell>
        <mxCell id="M3O_SQnftP9who5srQIG-2" value="header" style="rounded=0;whiteSpace=wrap;html=1;" parent="1" vertex="1">
          <mxGeometry x="530" y="120" width="120" height="60" as="geometry" />
        </mxCell>
        <mxCell id="M3O_SQnftP9who5srQIG-3" value="footer" style="rounded=0;whiteSpace=wrap;html=1;" parent="1" vertex="1">
          <mxGeometry x="530" y="500" width="120" height="60" as="geometry" />
        </mxCell>
        <mxCell id="M3O_SQnftP9who5srQIG-6" value="" style="rounded=0;whiteSpace=wrap;html=1;" parent="1" vertex="1">
          <mxGeometry x="40" y="80" width="240" height="400" as="geometry" />
        </mxCell>
        <mxCell id="M3O_SQnftP9who5srQIG-11" style="edgeStyle=orthogonalEdgeStyle;rounded=0;orthogonalLoop=1;jettySize=auto;html=1;exitX=1;exitY=0.5;exitDx=0;exitDy=0;" parent="1" source="M3O_SQnftP9who5srQIG-7" target="M3O_SQnftP9who5srQIG-10" edge="1">
          <mxGeometry relative="1" as="geometry" />
        </mxCell>
        <mxCell id="M3O_SQnftP9who5srQIG-7" value="create" style="rounded=1;whiteSpace=wrap;html=1;" parent="1" vertex="1">
          <mxGeometry x="80" y="230" width="120" height="60" as="geometry" />
        </mxCell>
        <mxCell id="M3O_SQnftP9who5srQIG-8" value="delete" style="rounded=1;whiteSpace=wrap;html=1;" parent="1" vertex="1">
          <mxGeometry x="80" y="300" width="120" height="60" as="geometry" />
        </mxCell>
        <mxCell id="M3O_SQnftP9who5srQIG-9" value="edit" style="rounded=1;whiteSpace=wrap;html=1;" parent="1" vertex="1">
          <mxGeometry x="80" y="370" width="120" height="60" as="geometry" />
        </mxCell>
        <mxCell id="Pw-KnBhTI9NdzXUjMcd7-2" value="" style="edgeStyle=orthogonalEdgeStyle;rounded=0;orthogonalLoop=1;jettySize=auto;html=1;" edge="1" parent="1" source="M3O_SQnftP9who5srQIG-10" target="Pw-KnBhTI9NdzXUjMcd7-1">
          <mxGeometry relative="1" as="geometry" />
        </mxCell>
        <mxCell id="M3O_SQnftP9who5srQIG-10" value="get the new post from an form(popup) and send it to the main" style="rounded=1;whiteSpace=wrap;html=1;" parent="1" vertex="1">
          <mxGeometry x="570" y="225" width="110" height="70" as="geometry" />
        </mxCell>
        <mxCell id="M3O_SQnftP9who5srQIG-13" style="edgeStyle=orthogonalEdgeStyle;rounded=0;orthogonalLoop=1;jettySize=auto;html=1;exitX=0;exitY=0.5;exitDx=0;exitDy=0;entryX=1;entryY=0.5;entryDx=0;entryDy=0;" parent="1" source="M3O_SQnftP9who5srQIG-12" target="M3O_SQnftP9who5srQIG-8" edge="1">
          <mxGeometry relative="1" as="geometry" />
        </mxCell>
        <mxCell id="M3O_SQnftP9who5srQIG-12" value="publications can call function of delet wich delet them from the array" style="rounded=1;whiteSpace=wrap;html=1;" parent="1" vertex="1">
          <mxGeometry x="550" y="300" width="120" height="60" as="geometry" />
        </mxCell>
        <mxCell id="M3O_SQnftP9who5srQIG-15" style="edgeStyle=orthogonalEdgeStyle;rounded=0;orthogonalLoop=1;jettySize=auto;html=1;exitX=0;exitY=0.5;exitDx=0;exitDy=0;entryX=1;entryY=0.5;entryDx=0;entryDy=0;" parent="1" source="M3O_SQnftP9who5srQIG-14" target="M3O_SQnftP9who5srQIG-9" edge="1">
          <mxGeometry relative="1" as="geometry" />
        </mxCell>
        <mxCell id="M3O_SQnftP9who5srQIG-14" value="can call edit wich searsh the element in array and show user the element then it can edit and resend, it woild be replaced with put" style="rounded=1;whiteSpace=wrap;html=1;" parent="1" vertex="1">
          <mxGeometry x="540" y="370" width="120" height="105" as="geometry" />
        </mxCell>
        <mxCell id="Pw-KnBhTI9NdzXUjMcd7-4" value="" style="edgeStyle=orthogonalEdgeStyle;rounded=0;orthogonalLoop=1;jettySize=auto;html=1;" edge="1" parent="1" source="Pw-KnBhTI9NdzXUjMcd7-1" target="Pw-KnBhTI9NdzXUjMcd7-3">
          <mxGeometry relative="1" as="geometry" />
        </mxCell>
        <mxCell id="Pw-KnBhTI9NdzXUjMcd7-1" value="read it and send in post format" style="whiteSpace=wrap;html=1;rounded=1;" vertex="1" parent="1">
          <mxGeometry x="700" y="230" width="120" height="60" as="geometry" />
        </mxCell>
        <mxCell id="Pw-KnBhTI9NdzXUjMcd7-3" value="adjust it with flexbox, in nx2 matrix" style="whiteSpace=wrap;html=1;rounded=1;" vertex="1" parent="1">
          <mxGeometry x="840" y="230" width="120" height="60" as="geometry" />
        </mxCell>
      </root>
    </mxGraphModel>
  </diagram>
</mxfile>
